<svg xmlns="http://www.w3.org/2000/svg" viewBox="0 0 100 115.47">
  <title>Hang — Kontrast</title>
  <clipPath id="hex"><path d="M50,0 L100,28.87 L100,86.6 L50,115.47 L0,86.6 L0,28.87 Z"/></clipPath>
  <g clip-path="url(#hex)">
    <rect x="0" y="0" width="100" height="115.47" fill="#8C9A7A"/>
    <g fill="#4E5940" opacity="0.85">
      <path d="M10,20 L25,10 L30,25 Z"/>
      <path d="M45,15 L62,5 L66,22 Z"/>
      <path d="M75,25 L92,15 L96,32 Z"/>
      <path d="M20,50 L37,40 L41,57 Z"/>
      <path d="M55,55 L72,45 L76,62 Z"/>
      <path d="M8,80 L25,70 L29,87 Z"/>
      <path d="M42,85 L59,75 L63,92 Z"/>
      <path d="M75,90 L92,80 L96,97 Z"/>
    </g>
  </g>
</svg>
