<svg xmlns="http://www.w3.org/2000/svg" viewBox="0 0 100 115.47">
  <title>Ufer — Kontrast</title>
  <clipPath id="hex"><path d="M50,0 L100,28.87 L100,86.6 L50,115.47 L0,86.6 L0,28.87 Z"/></clipPath>
  <g clip-path="url(#hex)">
    <rect x="0" y="0" width="100" height="115.47" fill="#D9C46A"/>
    <g fill="#8A6A2E" opacity="0.85">
      <rect x="18" y="24" width="8" height="8" transform="rotate(45 22 28)"/>
      <rect x="54" y="16" width="7" height="7" transform="rotate(45 57.5 19.5)"/>
      <rect x="36" y="41" width="9" height="9" transform="rotate(45 40.5 45.5)"/>
      <rect x="71" y="38" width="7" height="7" transform="rotate(45 74.5 41.5)"/>
      <rect x="14" y="56" width="8" height="8" transform="rotate(45 18 60)"/>
      <rect x="58" y="61" width="8" height="8" transform="rotate(45 62 65)"/>
      <rect x="81" y="71" width="7" height="7" transform="rotate(45 84.5 74.5)"/>
      <rect x="29" y="81" width="8" height="8" transform="rotate(45 33 85)"/>
      <rect x="51" y="94" width="7" height="7" transform="rotate(45 54.5 97.5)"/>
    </g>
  </g>
</svg>
